<?xml version="1.0" encoding="iso-8859-1"?>
<!-- Uploaded to: SVG Repo, www.svgrepo.com, Generator: SVG Repo Mixer Tools -->
<svg fill="#ff4d30" height="800px" width="800px" version="1.1" id="Layer_1" xmlns="http://www.w3.org/2000/svg" xmlns:xlink="http://www.w3.org/1999/xlink" 
	 viewBox="0 0 512 512" xml:space="preserve">
<g>
	<g>
		<g>
			<path d="M314.476,280.971h-1.886c-5.953,0-10.779,4.826-10.779,10.779c0,5.953,4.826,10.779,10.779,10.779h1.886
				c5.953,0,10.779-4.826,10.779-10.779C325.255,285.796,320.429,280.971,314.476,280.971z"/>
			<path d="M409.6,211.806h-63.165c-4.99-7.332-25.709-32.213-31.044-40.747c-0.045-0.071-0.091-0.143-0.137-0.213
				c-11.528-17.505-33.663-36.109-51.978-36.109H153.869c-18.169,0-40.099,18.31-51.701,35.692L84.575,192.55
				c-0.251,0.316-0.485,0.647-0.698,0.988c-3.367,5.377-17.796,18.268-33.528,18.268h-1.843C21.759,211.806,0,233.566,0,260.312
				v70.063c0,5.953,4.826,10.779,10.779,10.779H60.98c8.225,21.107,28.756,36.109,52.738,36.109
				c23.982,0,44.513-15.002,52.738-36.108h184.478c8.224,21.106,28.755,36.108,52.737,36.108s44.513-15.002,52.738-36.108h44.811
				c5.953,0,10.779-4.826,10.779-10.779v-16.168C512,257.743,466.063,211.806,409.6,211.806z M263.276,156.295
				c6.909,0,23.132,10.006,33.907,26.308c6.09,9.722,20.87,27.454,22.298,29.203H167.893c-1.199,0-1.83-0.69-2.149-1.268
				c-0.316-0.573-0.56-1.468,0.076-2.475c7.365-11.667,34.875-48.002,37.679-51.77v0.001H263.276z M113.718,355.705
				c-19.316,0-35.032-15.716-35.032-35.032c0-19.316,15.716-35.032,35.032-35.032s35.032,15.716,35.032,35.032
				C148.749,339.99,133.034,355.705,113.718,355.705z M403.672,355.705c-19.316,0-35.032-15.716-35.032-35.032
				c0-19.316,15.716-35.032,35.032-35.032c19.316,0,35.032,15.716,35.032,35.032C438.703,339.99,422.987,355.705,403.672,355.705z
				 M490.442,319.596h-30.208c-0.579-30.706-25.72-55.512-56.563-55.512s-55.984,24.806-56.563,55.513H170.28
				c-0.112-5.959-1.148-11.692-2.974-17.067h102.976c5.953,0,10.779-4.826,10.779-10.779c0-5.953-4.826-10.779-10.779-10.779
				H154.678c-0.22,0-0.435,0.019-0.652,0.033c-10.271-10.436-24.544-16.921-40.308-16.921c-30.843,0-55.984,24.806-56.563,55.513
				H21.558v-45.812h9.162c5.953,0,10.779-4.826,10.779-10.779c0-5.953-4.826-10.779-10.779-10.779h-7.921
				c3.443-10.921,13.663-18.863,25.707-18.863h1.843c25.186,0,45.175-18.355,51.427-27.809l17.554-22.072
				c0.201-0.251,0.389-0.513,0.566-0.781c10.776-16.361,27.05-26.408,33.974-26.408h22.638
				c-10.024,13.241-21.24,28.099-28.917,40.259c-4.668,7.39-4.946,16.736-0.728,24.391c4.222,7.661,12.28,12.419,21.03,12.419H409.6
				c44.576,0,80.842,36.266,80.842,80.842V319.596z"/>
		</g>
	</g>
</g>
</svg>